<svg xmlns="http://www.w3.org/2000/svg" version="1.1" xmlns:xlink="http://www.w3.org/1999/xlink" xmlns:svgjs="http://svgjs.dev/svgjs" width="1000" height="1000" viewBox="0 0 1000 1000"><rect width="1000" height="1000" fill="#1b4571"></rect><g transform="matrix(0.7,0,0,0.7,149.57575757575756,282.1265587044535)"><svg viewBox="0 0 396 247" data-background-color="#1b4571" preserveAspectRatio="xMidYMid meet" height="623" width="1000" xmlns="http://www.w3.org/2000/svg" xmlns:xlink="http://www.w3.org/1999/xlink"><g id="tight-bounds" transform="matrix(1,0,0,1,0.2400000000000091,-0.09999999999999432)"><svg viewBox="0 0 395.52 247.2" height="247.2" width="395.52"><g><svg></svg></g><g><svg viewBox="0 0 395.52 247.2" height="247.2" width="395.52"><g transform="matrix(1,0,0,1,137.1336687679083,47.215199999999996)"><svg viewBox="0 0 121.25266246418339 152.7696" height="152.7696" width="121.25266246418339"><g><svg viewBox="0 0 121.25266246418339 152.7696" height="152.7696" width="121.25266246418339"><g><svg viewBox="0 0 121.25266246418339 152.7696" height="152.7696" width="121.25266246418339"><g><svg viewBox="0 0 121.25266246418339 152.7696" height="152.7696" width="121.25266246418339"><g id="textblocktransform"><svg viewBox="0 0 121.25266246418339 152.7696" height="152.7696" width="121.25266246418339" id="textblock"><g><svg viewBox="0 0 121.25266246418339 152.7696" height="152.7696" width="121.25266246418339"><g transform="matrix(1,0,0,1,0,0)"><svg width="121.25266246418339" viewBox="1.0499999523162842 -34.900001525878906 27.700000762939453 34.900001525878906" height="152.7696" data-palette-color="#ffffff"><path d="M28.75 0L23.4 0 20.7-9.65 8.95-9.65 6.25 0 1.05 0 11.5-34.9 18.25-34.9 28.75 0ZM19.45-14L16.2-25 15.1-30.1 14.45-30.1 13.35-25 10.25-14 19.45-14Z" opacity="1" transform="matrix(1,0,0,1,0,0)" fill="#ffffff" class="wordmark-text-0" data-fill-palette-color="primary" id="text-0"></path></svg></g></svg></g></svg></g></svg></g></svg></g></svg></g></svg></g><g><path d="M0 123.6c0-68.262 55.338-123.6 123.6-123.6 30.402 0 58.24 10.976 79.768 29.183l-11.147 0c-19.26-14.022-42.974-22.294-68.621-22.295-64.458 0-116.712 52.254-116.712 116.712 0 64.458 52.254 116.712 116.712 116.712 25.647 0 49.361-8.272 68.621-22.295l11.147 0c-21.528 18.206-49.366 29.183-79.768 29.183-68.262 0-123.6-55.338-123.6-123.6z" fill="#ffffff" stroke="transparent" data-fill-palette-color="tertiary"></path></g></svg></g><defs></defs></svg><rect width="395.52" height="247.2" fill="none" stroke="none" visibility="hidden"></rect></g></svg></g></svg>